<?xml version="1.0" encoding="UTF-8"?>
<svg id="Camada_1" data-name="Camada 1" xmlns="http://www.w3.org/2000/svg" viewBox="0 0 40 40">
  <defs>
    <style>
      .cls-1 {
        fill: none;
        stroke: #eee;
        stroke-miterlimit: 10;
      }

      .cls-2 {
        fill: #13154f;
      }
    </style>
  </defs>
  <path class="cls-2" d="M16.66,17.79c-.84.24-.3,1.69.57,1.68,4.09.37,8.94-.47,12.93,0,.38.04.8.01.95.47.57,1.75-1.84,1.41-1.95,1.51-.14.13.14,3.09-.12,3.95-.08.26-2.92,4-3.25,4.34-2.68,2.76-7.43,2.76-10.11,0-.33-.34-3.17-4.08-3.25-4.34-.26-.86.02-3.82-.12-3.95-.12-.11-1.61.31-1.92-.76-.51-1.78,1.73-1.02,1.92-1.21.13-.12-.06-2.84.02-3.49.33-2.53,2.4-4.95,4.62-6.06.03.52.38,2.62,1.42,1.71.89-.78-.01-2.8.67-3.27.29-.2,2.81-.22,3.21-.08,1.04.34-.15,2.9,1.02,3.49,1.01.51,1.16-1.28,1.27-1.84,2.91,1.5,4.94,4.5,4.64,7.87h-12.51ZM26.85,25.04c.77-.77.44-3.32-.92-3.58-1.07-.2-7.57-.45-8.69-.4-.28.01-1.02.24-1.64.45s-1.08.77-1.14,1.43c-.07.77-.11,1.71.07,1.99.25.38.84.28,1.09.53s.62,1.62,1.2,2.32c2.13,2.59,5.95,2.51,7.98-.16.49-.64.85-1.94,1.07-2.16s.77-.18.99-.4Z"/>
  <line class="cls-1" x1="8.8" y1="8.08" x2="30.98" y2="31.92"/>
</svg>