<?xml version="1.0" encoding="UTF-8"?>
<svg id="Camada_1" data-name="Camada 1" xmlns="http://www.w3.org/2000/svg" viewBox="0 0 40 40">
  <defs>
    <style>
      .cls-1 {
        fill: #13154f;
      }
    </style>
  </defs>
  <path class="cls-1" d="M11.65,21.91s.98.02,1.11,0c.57-.07,1.43-.53,2.1-.67,2.44-.51,4.25.36,5.97,2.02,1.11.09,2.3-.07,3.4.01.7.05,1.16.27,1.74.64l4.6-2.35c2.54-1.3,4.74,1.78,2.54,3.7-2.7,1.73-5.26,4.01-7.98,5.68-1.03.63-1.84.95-3.09.84l-9.08-2.38c-.19.03-1.25-.05-1.31,0-.01.01-.03.19-.08.27-.23.38-.74.75-1.19.81-.6.08-2.28.07-2.89,0-.84-.09-1.39-.84-1.45-1.64-.16-2.05.13-4.31,0-6.39.14-1.12.82-1.57,1.9-1.64.79-.05,2.51-.09,3.15.34.29.2.53.73.57.75ZM7.7,22.19c-.16.04-.32.16-.31.34l.03,6.42c.03.1.08.18.2.19h2.63s.14-.13.14-.13l.02-6.6c-.08-.16-.24-.22-.4-.24-.38-.04-1.97-.06-2.31.02ZM12.96,23.28c-.36.05-.82-.04-1.19,0v4.77h1.32l8.9,2.37c1.11.14,1.71-.15,2.6-.72,2.63-1.66,5.11-3.82,7.73-5.52.72-.74.2-1.79-.85-1.52l-4.79,2.43c-.21.12-.05.36-.06.53-.09,1.41-1.01,2.21-2.39,2.3-1.69.11-3.51-.08-5.21,0-.83-.11-.91-1.11-.13-1.34,1.73-.12,3.64.14,5.34,0,1.41-.12,1.38-1.82,0-1.94-1.1-.09-2.69.18-3.71-.03-.5-.1-1.11-.84-1.55-1.16-1.28-.94-2.48-1.2-4.04-.83-.61.14-1.44.59-1.97.67Z"/>
  <g>
    <path class="cls-1" d="M14.53,8.19c-2.9,0-4.64,2-4.64,5.35s1.73,5.35,4.64,5.35,4.64-2,4.64-5.35-1.73-5.35-4.64-5.35ZM14.53,10.11c1.15,0,2.46.39,2.46,3.42s-1.32,3.42-2.46,3.42c-1.22,0-2.46-.41-2.46-3.42s1.25-3.42,2.46-3.42Z"/>
    <path class="cls-1" d="M29.56,10.57c.38-.36.55-.7.55-1.09,0-.5-.31-1.04-1.16-1.04h-9.17v4.66h4.38l-4.89,4.69v.86h1.83l4.08-3.89v3.89h4.82v-4.65h-4.02l3.6-3.43ZM27.04,16.85v-1.08h1.09v1.08h-1.09ZM24.59,10.24h2.55l-2.55,2.45v-2.45ZM21.65,11.3v-1.06h1.1v1.06h-1.1Z"/>
  </g>
</svg>