<?xml version="1.0" encoding="UTF-8"?>
<svg id="Camada_2" data-name="Camada 2" xmlns="http://www.w3.org/2000/svg" viewBox="0 0 84.23 84.23">
  <defs>
    <style>
      .cls-1 {
        fill: #fff;
      }

      .cls-2 {
        fill: #40c351;
      }
    </style>
  </defs>
  <g id="WhatsApp">
    <circle class="cls-2" cx="42.12" cy="42.12" r="42.12"/>
  </g>
  <g id="WhatsApp-2" data-name="WhatsApp">
    <g>
      <path class="cls-1" d="M20.2,63.01c-.47-.47,2.71-8.83,2.7-10.44-.01-1.74-2.33-5.39-2.64-8.08-3.34-28.33,35.81-34.67,42.92-10.26,4.72,16.22-7.75,30.7-24.45,28.73-2.33-.27-6.26-2.49-7.45-2.47-1.6.02-10.66,2.94-11.07,2.53ZM26.09,57.66c1.51-.36,4.23-1.58,5.64-1.54,1.19.04,4.61,2.08,6.54,2.47,18.41,3.79,29.68-19.25,15.66-31.18-13.4-11.4-33.15.93-29.2,17.96.46,2.01,2.22,4.62,2.42,6.18.29,2.25-1.25,3.91-1.05,6.11Z"/>
      <path class="cls-1" d="M36.18,30.98c.23.14,2.07,4.81,2.1,5.09.14,1.55-1.83,2.47-1.96,3.2-.29,1.71,6.52,7.43,8.34,7.6,1.52.14,2.34-2.88,3.17-3.08.57-.14,5.52,2.28,5.55,3.4.22,6.93-9.93,3.64-13.32,1.6s-9.45-9.03-9.13-13.27c.17-2.25,2.74-6.08,5.25-4.53Z"/>
    </g>
  </g>
</svg>